# xmcd
#
# Track frame offsets:
#	150
#	9462
#	22415
#	33502
#	46772
#	62197
#	81952
#	94205
#	104790
#	116795
#
# Disc length: 1761 seconds
#
# Revision: 4
# Processed by: cddbd v1.5.2PL0 Copyright (c) Steve Scherf et al.
# Submitted via: audiograbber 1.83.01
#
DISCID=8a06df0a
DTITLE=Linda Ronstadt - Silk Purse
DYEAR=1900
DGENRE=Oldies
TTITLE0=Lovesick Blues
TTITLE1=Are My Thoughts With You?
TTITLE2=Will You Love Me Tomorrow?
TTITLE3=Nobody's
TTITLE4=Louise
TTITLE5=Long Long Time
TTITLE6=Mental Revenge
TTITLE7=I'm Leavin' It All Up To You
TTITLE8=He Dark The Sun
TTITLE9=Life Is Like A Mountain Railway
EXTD=
EXTT0=
EXTT1=
EXTT2=
EXTT3=
EXTT4=
EXTT5=
EXTT6=
EXTT7=
EXTT8=
EXTT9=
PLAYORDER=
